{"title":"Albert Nobbs [2011] DVD SCREENER MKV c00kies INF1N1TY","uid":6838062,"size":830473622,"categoryP":"video","categoryS":"movies","magnet":"?xt=urn:btih:53c0408d92413356f31bd51e3ed7d5d905ded2a4&amp;dn=Albert+Nobbs+%5B2011%5D+DVD+SCREENER+MKV+c00kies+INF1N1TY&amp;tr=udp%3A%2F%2Ftracker.openbittorrent.com%3A80&amp;tr=udp%3A%2F%2Fopen.demonii.com%3A1337&amp;tr=udp%3A%2F%2Ftracker.coppersurfer.tk%3A6969&amp;tr=udp%3A%2F%2Fexodus.desync.com%3A6969","seeders":1,"leechers":0,"uploader":"SaM","files":3,"time":1322075223,"description":" &lt;a href=&quot;\nhttp://imdb.com/title/tt1602098/&quot; rel=&quot;nofollow&quot; target=&quot;_NEW&quot;&gt;\nhttp://imdb.com/title/tt1602098/&lt;/a&gt;\n\nGlenn Close plays a woman passing as a man in order to work and survive in 19th century Ireland. Some thirty years after donning men's clothing, she finds herself trapped in a prison of her own making.\n\nFormat : Matroska\nFormat version : Version 2\nFile size : 792 MiB\nDuration : 1h 53mn\nOverall bit rate : 975 Kbps\nWriting application : HandBrake 0.9.5\nWriting library : libmkv 0.6.4.1\n\nVideo\nID : 1\nFormat : AVC\nFormat/Info : Advanced Video Codec\nFormat profile : &lt;a class=&quot;__cf_email__&quot; href=&quot;/cdn-cgi/l/email-protection&quot; data-cfemail=&quot;ade5c4cac5ede19e839d&quot;&gt;[email&amp;#160;protected]&lt;/a&gt;&lt;script cf-hash='f9e31' type=&quot;text/javascript&quot;&gt;\n/* &lt;![CDATA[ */!function(){try{var t=&quot;currentScript&quot;in document?document.currentScript:function(){for(var t=document.getElementsByTagName(&quot;script&quot;),e=t.length;e--;)if(t[e].getAttribute(&quot;cf-hash&quot;))return t[e]}();if(t&amp;&amp;t.previousSibling){var e,r,n,i,c=t.previousSibling,a=c.getAttribute(&quot;data-cfemail&quot;);if(a){for(e=&quot;&quot;,r=parseInt(a.substr(0,2),16),n=2;a.length-n;n+=2)i=parseInt(a.substr(n,2),16)^r,e+=String.fromCharCode(i);e=document.createTextNode(e),c.parentNode.replaceChild(e,c)}}}catch(u){}}();/* ]]&gt; */&lt;/script&gt;\nFormat settings, CABAC : Yes\nFormat settings, ReFrames : 6 frames\nCodec ID : V_MPEG4/ISO/AVC\nDuration : 1h 53mn\nBit rate : 764 Kbps\nWidth : 720 pixels\nHeight : 370 pixels\nDisplay aspect ratio : 2.35:1\nOriginal display aspect ratio : 2.35:1\nFrame rate mode : Variable\nFrame rate : 29.970 fps\nColor space : YUV\nChroma subsampling : 4:2:0\nBit depth : 8 bits\nScan type : Progressive\nBits/(Pixel*Frame) : 0.096\nStream size : 620 MiB (78%)\nWriting library : x264 core 112\n\n\nAudio\nID : 2\nFormat : AC-3\nFormat/Info : Audio Coding 3\nMode extension : CM (complete main)\nCodec ID : A_AC3\nDuration : 1h 53mn\nBit rate mode : Constant\nBit rate : 192 Kbps\nChannel(s) : 2 channels\nChannel positions : Front: L R\nSampling rate : 48.0 KHz\nBit depth : 16 bits\nCompression mode : Lossy\nStream size : 156 MiB (20%)\n\nScreens:\n &lt;a href=&quot;\nhttp://img856.imageshack.us/img856/7940/4o9gldzq.png&quot; rel=&quot;nofollow&quot; target=&quot;_NEW&quot;&gt;\nhttp://img856.imageshack.us/img856/7940/4o9gldzq.png&lt;/a&gt;\n &lt;a href=&quot;\nhttp://img836.imageshack.us/img836/9396/gp6obvxg.png&quot; rel=&quot;nofollow&quot; target=&quot;_NEW&quot;&gt;\nhttp://img836.imageshack.us/img836/9396/gp6obvxg.png&lt;/a&gt;\n &lt;a href=&quot;\nhttp://img853.imageshack.us/img853/6690/ip3lwdh0.png&quot; rel=&quot;nofollow&quot; target=&quot;_NEW&quot;&gt;\nhttp://img853.imageshack.us/img853/6690/ip3lwdh0.png&lt;/a&gt;\n\n","torrent":{"xt":"urn:btih:53c0408d92413356f31bd51e3ed7d5d905ded2a4","amp;dn":"Albert+Nobbs+%5B2011%5D+DVD+SCREENER+MKV+c00kies+INF1N1TY","amp;tr":["udp%3A%2F%2Ftracker.openbittorrent.com%3A80","udp%3A%2F%2Fopen.demonii.com%3A1337","udp%3A%2F%2Ftracker.coppersurfer.tk%3A6969","udp%3A%2F%2Fexodus.desync.com%3A6969"],"infoHash":"53c0408d92413356f31bd51e3ed7d5d905ded2a4","infoHashBuffer":{"type":"Buffer","data":[83,192,64,141,146,65,51,86,243,27,213,30,62,215,213,217,5,222,210,164]},"announce":[],"urlList":[]}}